<?xml version="1.0" encoding="utf-8"?>
<!-- Generator: Adobe Illustrator 24.3.0, SVG Export Plug-In . SVG Version: 6.00 Build 0)  -->
<svg version="1.1" id="Layer_1" xmlns="http://www.w3.org/2000/svg" xmlns:xlink="http://www.w3.org/1999/xlink" x="0px" y="0px"
	 viewBox="0 0 50 50" style="enable-background:new 0 0 50 50;" xml:space="preserve">
<style type="text/css">
	.st0{opacity:0.1;fill:#FF4D24;}
	.st1{fill:#FFFFFF;}
	.st2{fill:#595656;}
	.st3{fill:#FF4D24;}
</style>
<g>
	<circle class="st0" cx="27.7" cy="27.3" r="21.2"/>
	<g>
		<g>
			<g>
				<rect x="1.1" y="1.5" class="st1" width="40.1" height="35.1"/>
				<path class="st2" d="M41.1,37.7H1.1c-0.6,0-1.1-0.5-1.1-1.1V1.5c0-0.6,0.5-1.1,1.1-1.1h40.1c0.6,0,1.1,0.5,1.1,1.1v35.1
					C42.2,37.2,41.7,37.7,41.1,37.7z M2.2,35.5h37.9V2.6H2.2V35.5z"/>
			</g>
			<g>
				<polyline class="st3" points="1.1,7.6 1.1,1.5 41.1,1.5 41.1,7.6 				"/>
				<path class="st2" d="M41.1,8.7c-0.6,0-1.1-0.5-1.1-1.1v-5H2.2v5c0,0.6-0.5,1.1-1.1,1.1C0.5,8.7,0,8.2,0,7.6V1.5
					c0-0.6,0.5-1.1,1.1-1.1h40.1c0.6,0,1.1,0.5,1.1,1.1v6.1C42.2,8.2,41.7,8.7,41.1,8.7z"/>
			</g>
			<g>
				<path class="st2" d="M6,4.9c0-0.6-0.5-1-1-1c-0.6,0-1,0.5-1,1c0,0.6,0.5,1,1,1C5.6,6,6,5.5,6,4.9z"/>
				<path class="st2" d="M9.7,4.9c0-0.6-0.5-1-1-1c-0.6,0-1,0.5-1,1c0,0.6,0.5,1,1,1C9.3,6,9.7,5.5,9.7,4.9z"/>
				<path class="st2" d="M13.4,4.9c0-0.6-0.5-1-1-1c-0.6,0-1,0.5-1,1c0,0.6,0.5,1,1,1C13,6,13.4,5.5,13.4,4.9z"/>
			</g>
		</g>
		<g>
			<g>
				<polygon class="st1" points="21.1,27.1 21.1,27.1 21.1,27.1 				"/>
				<path class="st2" d="M21.1,28.2c-0.6,0-1.1-0.5-1.1-1.1s0.5-1.1,1.1-1.1h0c0.6,0,1.1,0.5,1.1,1.1S21.7,28.2,21.1,28.2z"/>
			</g>
			<g>
				<path class="st1" d="M21.1,14.7c-3.4,0-6.6,1.4-8.8,3.7c-2.3,2.3-3.6,5.4-3.6,8.8c0,6.9,5.6,12.5,12.5,12.5V27.1l0,0l0,0V14.7z"
					/>
				<path class="st2" d="M21.1,40.7c-7.5,0-13.5-6.1-13.5-13.5c0-3.6,1.4-7,4-9.6c2.6-2.6,6-4,9.6-4c0.6,0,1.1,0.5,1.1,1.1v24.9
					C22.2,40.2,21.7,40.7,21.1,40.7z M20,15.8c-2.6,0.2-5.1,1.4-7,3.3c-2.1,2.1-3.3,5-3.3,8c0,5.9,4.5,10.8,10.3,11.3V15.8z"/>
			</g>
			<g>
				<path class="st3" d="M21.1,14.7v12.5l0,0l8.8,8.8c2.3-2.3,3.7-5.4,3.7-8.8C33.6,20.2,28,14.7,21.1,14.7z"/>
				<path class="st2" d="M29.9,37c-0.3,0-0.6-0.1-0.8-0.3l-8.8-8.8c-0.2-0.2-0.3-0.5-0.3-0.8V14.7c0-0.6,0.5-1.1,1.1-1.1
					c7.5,0,13.5,6.1,13.5,13.5c0,3.6-1.4,7-4,9.6C30.5,36.9,30.2,37,29.9,37z M22.2,26.7l7.7,7.7c1.7-2,2.6-4.6,2.6-7.2
					c0-5.9-4.5-10.8-10.3-11.3V26.7z"/>
			</g>
			<g>
				<path class="st1" d="M21.1,39.6c3.4,0,6.6-1.4,8.8-3.6l-8.8-8.8V39.6z"/>
				<path class="st2" d="M21.1,40.7c-0.6,0-1.1-0.5-1.1-1.1V27.1c0-0.4,0.3-0.8,0.7-1c0.4-0.2,0.9-0.1,1.2,0.2l8.8,8.8
					c0.4,0.4,0.4,1.1,0,1.5C28.1,39.3,24.7,40.7,21.1,40.7z M22.2,29.7v8.7c2.3-0.2,4.4-1.1,6.2-2.5L22.2,29.7z"/>
			</g>
		</g>
		<path class="st2" d="M48.9,32.9H34.1c-0.3,0-0.6-0.1-0.8-0.3l-4.1-4.1c-0.4-0.4-0.4-1.1,0-1.5c0.4-0.4,1.1-0.4,1.5,0l3.8,3.8h14.4
			c0.6,0,1.1,0.5,1.1,1.1C50,32.4,49.5,32.9,48.9,32.9z"/>
		<path class="st2" d="M48.9,38.5h-3.6c-0.6,0-1.1-0.5-1.1-1.1c0-0.6,0.5-1.1,1.1-1.1h3.6c0.6,0,1.1,0.5,1.1,1.1
			C50,38,49.5,38.5,48.9,38.5z"/>
		<path class="st2" d="M48.7,44H30.6c-0.6,0-1.1-0.5-1.1-1.1s0.5-1.1,1.1-1.1h18.1c0.6,0,1.1,0.5,1.1,1.1S49.3,44,48.7,44z"/>
		<path class="st2" d="M48.7,49.6H23.1c-0.6,0-1.1-0.5-1.1-1.1c0-0.6,0.5-1.1,1.1-1.1h25.6c0.6,0,1.1,0.5,1.1,1.1
			C49.8,49.1,49.3,49.6,48.7,49.6z"/>
	</g>
</g>
</svg>
