<?xml version="1.0" encoding="utf-8"?>
<!-- Generator: Adobe Illustrator 24.3.0, SVG Export Plug-In . SVG Version: 6.00 Build 0)  -->
<svg version="1.1" id="Layer_1" xmlns="http://www.w3.org/2000/svg" xmlns:xlink="http://www.w3.org/1999/xlink" x="0px" y="0px"
	 viewBox="0 0 50 50" style="enable-background:new 0 0 50 50;" xml:space="preserve">
<style type="text/css">
	.st0{fill:#FFFFFF;}
	.st1{fill:#595656;}
	.st2{fill:#FF4D24;}
	.st3{opacity:0.1;fill:#FF4D24;}
</style>
<g>
	<g>
		<rect x="17.3" y="38" class="st0" width="15.4" height="10.9"/>
		<path class="st1" d="M32.7,50H17.3c-0.6,0-1.1-0.5-1.1-1.1V38c0-0.6,0.5-1.1,1.1-1.1h15.4c0.6,0,1.1,0.5,1.1,1.1v10.9
			C33.8,49.5,33.3,50,32.7,50z M18.4,47.8h13.3v-8.7H18.4V47.8z"/>
	</g>
	<g>
		<rect x="2.6" y="10.3" class="st0" width="44.8" height="32.2"/>
		<path class="st1" d="M47.4,43.6H2.6c-0.6,0-1.1-0.5-1.1-1.1V10.3c0-0.6,0.5-1.1,1.1-1.1h44.8c0.6,0,1.1,0.5,1.1,1.1v32.2
			C48.5,43.1,48,43.6,47.4,43.6z M3.7,41.4h42.6V11.4H3.7V41.4z"/>
	</g>
	<g>
		<g>
			<rect x="8.5" y="1.1" class="st0" width="33" height="33.4"/>
			<path class="st1" d="M41.5,35.6h-33c-0.6,0-1.1-0.5-1.1-1.1V1.1C7.4,0.5,7.9,0,8.5,0h33c0.6,0,1.1,0.5,1.1,1.1v33.4
				C42.6,35.1,42.1,35.6,41.5,35.6z M9.6,33.4h30.8V2.2H9.6V33.4z"/>
		</g>
		<g>
			<polyline class="st2" points="8.5,6.9 8.5,1.1 41.5,1.1 41.5,6.9 			"/>
			<path class="st1" d="M41.5,8c-0.6,0-1.1-0.5-1.1-1.1V2.2H9.6v4.7C9.6,7.5,9.1,8,8.5,8S7.4,7.5,7.4,6.9V1.1C7.4,0.5,7.9,0,8.5,0
				h33c0.6,0,1.1,0.5,1.1,1.1v5.8C42.6,7.5,42.1,8,41.5,8z"/>
		</g>
		<g>
			<path class="st1" d="M13.2,4.4c0-0.5-0.4-1-1-1c-0.5,0-1,0.4-1,1c0,0.5,0.4,1,1,1C12.8,5.3,13.2,4.9,13.2,4.4z"/>
			<path class="st1" d="M16.8,4.4c0-0.5-0.4-1-1-1c-0.5,0-1,0.4-1,1c0,0.5,0.4,1,1,1C16.3,5.3,16.8,4.9,16.8,4.4z"/>
			<path class="st1" d="M20.3,4.4c0-0.5-0.4-1-1-1c-0.5,0-1,0.4-1,1c0,0.5,0.4,1,1,1C19.8,5.3,20.3,4.9,20.3,4.4z"/>
		</g>
	</g>
	<path class="st1" d="M47,35.6H3c-0.6,0-1.1-0.5-1.1-1.1c0-0.6,0.5-1.1,1.1-1.1h44c0.6,0,1.1,0.5,1.1,1.1
		C48.1,35.1,47.6,35.6,47,35.6z"/>
	<g>
		<line class="st0" x1="37.5" y1="48.9" x2="12.5" y2="48.9"/>
		<path class="st1" d="M37.5,50h-25c-0.6,0-1.1-0.5-1.1-1.1c0-0.6,0.5-1.1,1.1-1.1h25c0.6,0,1.1,0.5,1.1,1.1
			C38.6,49.5,38.1,50,37.5,50z"/>
	</g>
	<path class="st3" d="M36.8,20.2c0-6.5-5.3-11.8-11.8-11.8c-6.5,0-11.8,5.3-11.8,11.8C13.2,26.7,18.5,32,25,32
		C31.5,32,36.8,26.7,36.8,20.2z"/>
	<g>
		<path class="st1" d="M30.8,26.6c-0.2,0-0.4,0-0.5-0.1c-0.5-0.3-0.7-1-0.4-1.5l2.8-4.8l-2.8-4.8c-0.3-0.5-0.1-1.2,0.4-1.5
			c0.5-0.3,1.2-0.1,1.5,0.4l3.1,5.4c0.2,0.3,0.2,0.7,0,1.1l-3.1,5.4C31.5,26.4,31.1,26.6,30.8,26.6z"/>
		<path class="st1" d="M19.2,26.6c-0.4,0-0.7-0.2-0.9-0.5l-3.1-5.4c-0.2-0.3-0.2-0.7,0-1.1l3.1-5.4c0.3-0.5,1-0.7,1.5-0.4
			c0.5,0.3,0.7,1,0.4,1.5l-2.8,4.8l2.8,4.8c0.3,0.5,0.1,1.2-0.4,1.5C19.6,26.6,19.4,26.6,19.2,26.6z"/>
		<path class="st1" d="M22.5,27.2c-0.1,0-0.3,0-0.4-0.1c-0.6-0.2-0.8-0.9-0.6-1.4l5.1-11.9c0.2-0.6,0.9-0.8,1.4-0.6
			c0.6,0.2,0.8,0.9,0.6,1.4l-5.1,11.9C23.3,26.9,22.9,27.2,22.5,27.2z"/>
	</g>
</g>
</svg>
