<?xml version="1.0" encoding="utf-8"?>
<!-- Generator: Adobe Illustrator 24.3.0, SVG Export Plug-In . SVG Version: 6.00 Build 0)  -->
<svg version="1.1" id="Layer_1" xmlns="http://www.w3.org/2000/svg" xmlns:xlink="http://www.w3.org/1999/xlink" x="0px" y="0px"
	 viewBox="0 0 50 50" style="enable-background:new 0 0 50 50;" xml:space="preserve">
<style type="text/css">
	.st0{opacity:0.1;fill:#FF4D24;}
	.st1{fill:#FFFFFF;}
	.st2{fill:#595656;}
	.st3{fill:#00FFA2;}
	.st4{fill:#FF4D24;}
	.st5{fill:#EEEEEE;}
</style>
<g>
	<path class="st0" d="M48.9,27.4c0-11.4-9.2-20.6-20.6-20.6C17,6.8,7.8,16,7.8,27.4C7.8,38.7,17,48,28.3,48
		C39.7,48,48.9,38.7,48.9,27.4z"/>
	<g>
		<g>
			<g>
				<g>
					<g>
						<path class="st1" d="M36.9,7.5c0,3-2.5,5.5-5.5,5.5H6.6c-3,0-5.5-2.5-5.5-5.5l0,0c0-3,2.5-5.5,5.5-5.5h24.8
							C34.4,2,36.9,4.5,36.9,7.5L36.9,7.5z"/>
						<path class="st2" d="M31.4,14.1H6.6C3,14.1,0,11.2,0,7.5C0,3.9,3,1,6.6,1h24.8c3.6,0,6.6,3,6.6,6.6
							C37.9,11.2,35,14.1,31.4,14.1z M6.6,3.1c-2.4,0-4.4,2-4.4,4.4c0,2.4,2,4.4,4.4,4.4h24.8c2.4,0,4.4-2,4.4-4.4
							c0-2.4-2-4.4-4.4-4.4H6.6z"/>
					</g>
					<g>
						<path class="st3" d="M32.4,7.5c0-0.7-0.5-1.2-1.2-1.2c-0.7,0-1.2,0.5-1.2,1.2c0,0.7,0.5,1.2,1.2,1.2
							C31.9,8.7,32.4,8.2,32.4,7.5z"/>
						<path class="st4" d="M31.2,9.8c-1.3,0-2.3-1-2.3-2.3c0-1.3,1-2.3,2.3-2.3c1.3,0,2.3,1,2.3,2.3C33.5,8.8,32.5,9.8,31.2,9.8z
							 M31.2,7.4c-0.1,0-0.1,0.1-0.1,0.1c0,0.1,0.2,0.1,0.2,0C31.3,7.5,31.3,7.4,31.2,7.4z"/>
					</g>
					<g>
						<path class="st3" d="M26.2,7.5c0-0.7-0.5-1.2-1.2-1.2c-0.7,0-1.2,0.5-1.2,1.2c0,0.7,0.5,1.2,1.2,1.2
							C25.7,8.7,26.2,8.2,26.2,7.5z"/>
						<path class="st4" d="M25,9.8c-1.3,0-2.3-1-2.3-2.3c0-1.3,1-2.3,2.3-2.3c1.3,0,2.3,1,2.3,2.3C27.3,8.8,26.3,9.8,25,9.8z
							 M25,7.4c-0.1,0-0.1,0.1-0.1,0.1c0,0.1,0.2,0.1,0.2,0C25.1,7.5,25.1,7.4,25,7.4z"/>
					</g>
				</g>
				<path class="st2" d="M17.7,8.6H5.6C5,8.6,4.5,8.1,4.5,7.5c0-0.6,0.5-1.1,1.1-1.1h12.1c0.6,0,1.1,0.5,1.1,1.1
					C18.8,8.1,18.3,8.6,17.7,8.6z"/>
			</g>
			<g>
				<g>
					<g>
						<path class="st1" d="M36.9,18.8c0,3-2.5,5.5-5.5,5.5H6.6c-3,0-5.5-2.5-5.5-5.5l0,0c0-3,2.5-5.5,5.5-5.5h24.8
							C34.4,13.3,36.9,15.8,36.9,18.8L36.9,18.8z"/>
						<path class="st2" d="M31.4,25.4H6.6c-3.6,0-6.6-3-6.6-6.6c0-3.6,3-6.6,6.6-6.6h24.8c3.6,0,6.6,3,6.6,6.6
							C37.9,22.5,35,25.4,31.4,25.4z M6.6,14.4c-2.4,0-4.4,2-4.4,4.4c0,2.4,2,4.4,4.4,4.4h24.8c2.4,0,4.4-2,4.4-4.4
							c0-2.4-2-4.4-4.4-4.4H6.6z"/>
					</g>
					<g>
						<path class="st3" d="M32.4,18.8c0-0.7-0.5-1.2-1.2-1.2c-0.7,0-1.2,0.5-1.2,1.2c0,0.7,0.5,1.2,1.2,1.2
							C31.9,20,32.4,19.5,32.4,18.8z"/>
						<path class="st4" d="M31.2,21.1c-1.3,0-2.3-1-2.3-2.3c0-1.3,1-2.3,2.3-2.3c1.3,0,2.3,1,2.3,2.3C33.5,20.1,32.5,21.1,31.2,21.1
							z M31.2,18.7c-0.1,0-0.1,0.1-0.1,0.1c0,0.1,0.2,0.1,0.2,0C31.3,18.8,31.3,18.7,31.2,18.7z"/>
					</g>
					<g>
						<path class="st3" d="M26.2,18.8c0-0.7-0.5-1.2-1.2-1.2c-0.7,0-1.2,0.5-1.2,1.2c0,0.7,0.5,1.2,1.2,1.2
							C25.7,20,26.2,19.5,26.2,18.8z"/>
						<path class="st4" d="M25,21.1c-1.3,0-2.3-1-2.3-2.3c0-1.3,1-2.3,2.3-2.3c1.3,0,2.3,1,2.3,2.3C27.3,20.1,26.3,21.1,25,21.1z
							 M25,18.7c-0.1,0-0.1,0.1-0.1,0.1c0,0.1,0.2,0.1,0.2,0C25.1,18.8,25.1,18.7,25,18.7z"/>
					</g>
				</g>
				<path class="st2" d="M17.7,19.9H5.6c-0.6,0-1.1-0.5-1.1-1.1s0.5-1.1,1.1-1.1h12.1c0.6,0,1.1,0.5,1.1,1.1S18.3,19.9,17.7,19.9z"
					/>
			</g>
			<g>
				<g>
					<g>
						<path class="st4" d="M36.9,30.1c0,3-2.5,5.5-5.5,5.5H6.6c-3,0-5.5-2.5-5.5-5.5l0,0c0-3,2.5-5.5,5.5-5.5h24.8
							C34.4,24.6,36.9,27.1,36.9,30.1L36.9,30.1z"/>
						<path class="st2" d="M31.4,36.7H6.6c-3.6,0-6.6-3-6.6-6.6c0-3.6,3-6.6,6.6-6.6h24.8c3.6,0,6.6,3,6.6,6.6
							C37.9,33.8,35,36.7,31.4,36.7z M6.6,25.7c-2.4,0-4.4,2-4.4,4.4c0,2.4,2,4.4,4.4,4.4h24.8c2.4,0,4.4-2,4.4-4.4
							c0-2.4-2-4.4-4.4-4.4H6.6z"/>
					</g>
					<g>
						<path class="st1" d="M32.8,30.1c0-0.8-0.7-1.5-1.5-1.5c-0.8,0-1.5,0.7-1.5,1.5c0,0.8,0.7,1.5,1.5,1.5
							C32.1,31.7,32.8,31,32.8,30.1z"/>
						<path class="st2" d="M31.2,32.8c-1.4,0-2.6-1.2-2.6-2.6c0-1.4,1.2-2.6,2.6-2.6c1.4,0,2.6,1.2,2.6,2.6
							C33.8,31.6,32.7,32.8,31.2,32.8z M31.2,29.7c-0.2,0-0.4,0.2-0.4,0.4c0,0.2,0.2,0.4,0.4,0.4c0.2,0,0.4-0.2,0.4-0.4
							C31.7,29.9,31.5,29.7,31.2,29.7z"/>
					</g>
					<g>
						<path class="st1" d="M26.6,30.1c0-0.8-0.7-1.5-1.5-1.5c-0.8,0-1.5,0.7-1.5,1.5c0,0.8,0.7,1.5,1.5,1.5
							C25.9,31.7,26.6,31,26.6,30.1z"/>
						<path class="st2" d="M25,32.8c-1.4,0-2.6-1.2-2.6-2.6c0-1.4,1.2-2.6,2.6-2.6c1.4,0,2.6,1.2,2.6,2.6
							C27.6,31.6,26.5,32.8,25,32.8z M25,29.7c-0.2,0-0.4,0.2-0.4,0.4c0,0.2,0.2,0.4,0.4,0.4c0.2,0,0.4-0.2,0.4-0.4
							C25.5,29.9,25.3,29.7,25,29.7z"/>
					</g>
				</g>
				<path class="st2" d="M17.7,31.2H5.6c-0.6,0-1.1-0.5-1.1-1.1s0.5-1.1,1.1-1.1h12.1c0.6,0,1.1,0.5,1.1,1.1S18.3,31.2,17.7,31.2z"
					/>
			</g>
		</g>
		<g>
			<g>
				<path class="st1" d="M46.6,31.3c-0.3-1.3-0.8-2.5-1.5-3.6l1.4-1.9l-3.3-3.3l-1.9,1.4c-1.1-0.7-2.3-1.2-3.6-1.5l-0.4-2.3h-4.6
					l-0.4,2.3c-1.3,0.3-2.5,0.8-3.6,1.5l-1.9-1.4l-3.3,3.3l1.4,1.9c-0.7,1.1-1.2,2.3-1.5,3.6l-2.3,0.4v4.6l2.3,0.4
					c0.3,1.3,0.8,2.5,1.5,3.6l-1.4,1.9l3.3,3.3l1.9-1.4c1.1,0.7,2.3,1.2,3.6,1.5l0.4,2.3h4.6l0.4-2.3c1.3-0.3,2.5-0.8,3.6-1.5
					l1.9,1.4l3.3-3.3l-1.4-1.9c0.7-1.1,1.2-2.3,1.5-3.6l2.3-0.4v-4.6L46.6,31.3z"/>
				<path class="st2" d="M37.3,49h-4.6c-0.5,0-1-0.4-1.1-0.9l-0.3-1.6c-0.9-0.3-1.8-0.6-2.6-1.1l-1.3,0.9c-0.4,0.3-1,0.3-1.4-0.1
					L22.8,43c-0.4-0.4-0.4-1-0.1-1.4l0.9-1.3c-0.5-0.8-0.8-1.7-1.1-2.6l-1.6-0.3c-0.5-0.1-0.9-0.5-0.9-1.1v-4.6c0-0.5,0.4-1,0.9-1.1
					l1.6-0.3c0.3-0.9,0.6-1.8,1.1-2.6l-0.9-1.3c-0.3-0.4-0.3-1,0.1-1.4l3.3-3.3c0.4-0.4,1-0.4,1.4-0.1l1.3,0.9
					c0.8-0.5,1.7-0.8,2.6-1.1l0.3-1.6c0.1-0.5,0.5-0.9,1.1-0.9h4.6c0.5,0,1,0.4,1.1,0.9l0.3,1.6c0.9,0.3,1.8,0.6,2.6,1.1l1.3-0.9
					c0.4-0.3,1-0.3,1.4,0.1l3.3,3.3c0.4,0.4,0.4,1,0.1,1.4l-0.9,1.3c0.5,0.8,0.8,1.7,1.1,2.6l1.6,0.3c0.5,0.1,0.9,0.5,0.9,1.1v4.6
					c0,0.5-0.4,1-0.9,1.1l-1.6,0.3c-0.3,0.9-0.6,1.8-1.1,2.6l0.9,1.3c0.3,0.4,0.3,1-0.1,1.4L44,46.3c-0.4,0.4-1,0.4-1.4,0.1
					l-1.3-0.9c-0.8,0.5-1.7,0.8-2.6,1.1l-0.3,1.6C38.3,48.7,37.9,49,37.3,49z M33.6,46.9h2.8l0.2-1.4c0.1-0.4,0.4-0.8,0.8-0.9
					c1.2-0.3,2.3-0.7,3.3-1.4c0.4-0.2,0.8-0.2,1.2,0l1.1,0.8l2-2L44.2,41c-0.3-0.4-0.3-0.8,0-1.2c0.6-1,1.1-2.1,1.4-3.3
					c0.1-0.4,0.4-0.8,0.9-0.8l1.4-0.2v-2.8l-1.4-0.2c-0.4-0.1-0.8-0.4-0.9-0.8c-0.3-1.2-0.7-2.3-1.4-3.3c-0.2-0.4-0.2-0.8,0-1.2
					l0.8-1.1l-2-2l-1.1,0.8c-0.4,0.3-0.8,0.3-1.2,0c-1-0.6-2.1-1.1-3.3-1.4c-0.4-0.1-0.8-0.4-0.8-0.9l-0.2-1.4h-2.8l-0.2,1.4
					c-0.1,0.4-0.4,0.8-0.8,0.9c-1.2,0.3-2.3,0.7-3.3,1.4c-0.4,0.2-0.8,0.2-1.2,0L26.9,24l-2,2l0.8,1.1c0.3,0.4,0.3,0.8,0,1.2
					c-0.6,1-1.1,2.1-1.4,3.3c-0.1,0.4-0.4,0.8-0.9,0.8l-1.4,0.2v2.8l1.4,0.2c0.4,0.1,0.8,0.4,0.9,0.8c0.3,1.2,0.7,2.3,1.4,3.3
					c0.2,0.4,0.2,0.8,0,1.2L25,42.1l2,2l1.1-0.8c0.4-0.3,0.8-0.3,1.2,0c1,0.6,2.1,1.1,3.3,1.4c0.4,0.1,0.8,0.4,0.8,0.9L33.6,46.9z"
					/>
			</g>
			<g>
				<path class="st1" d="M41.8,34c0-3.8-3.1-6.8-6.8-6.8c-3.8,0-6.8,3.1-6.8,6.8c0,3.8,3.1,6.8,6.8,6.8C38.8,40.9,41.8,37.8,41.8,34
					z"/>
				<path class="st2" d="M35,42c-4.4,0-7.9-3.5-7.9-7.9s3.5-7.9,7.9-7.9s7.9,3.5,7.9,7.9S39.4,42,35,42z M35,28.3
					c-3.2,0-5.7,2.6-5.7,5.7c0,3.2,2.6,5.7,5.7,5.7s5.7-2.6,5.7-5.7C40.7,30.9,38.2,28.3,35,28.3z"/>
			</g>
		</g>
		<path class="st5" d="M38.9,34c0-2.2-1.8-3.9-3.9-3.9c-2.2,0-3.9,1.8-3.9,3.9c0,2.2,1.8,3.9,3.9,3.9C37.2,38,38.9,36.2,38.9,34z"/>
	</g>
</g>
</svg>
