<?xml version="1.0" encoding="utf-8"?>
<!-- Generator: Adobe Illustrator 24.3.0, SVG Export Plug-In . SVG Version: 6.00 Build 0)  -->
<svg version="1.1" id="Layer_1" xmlns="http://www.w3.org/2000/svg" xmlns:xlink="http://www.w3.org/1999/xlink" x="0px" y="0px"
	 viewBox="0 0 50 50" style="enable-background:new 0 0 50 50;" xml:space="preserve">
<style type="text/css">
	.st0{fill:#FFFFFF;}
	.st1{fill:#595656;}
	.st2{fill:#FF4D24;}
	.st3{opacity:0.1;fill:#FF4D24;}
</style>
<g>
	<g>
		<g>
			<polygon class="st0" points="48.1,19.4 25,1.1 1.9,19.4 1.9,48.9 48.1,48.9 			"/>
			<path class="st1" d="M48.1,50H1.9c-0.6,0-1.1-0.5-1.1-1.1V19.4c0-0.3,0.2-0.6,0.4-0.8L24.3,0.2c0.4-0.3,1-0.3,1.3,0l23.1,18.4
				c0.3,0.2,0.4,0.5,0.4,0.8v29.5C49.2,49.5,48.7,50,48.1,50z M3,47.8h44V20L25,2.5L3,20V47.8z"/>
		</g>
		<g>
			<rect x="8" y="5.9" class="st0" width="34.1" height="33.7"/>
			<path class="st2" d="M42,40.8H8c-0.6,0-1.1-0.5-1.1-1.1V5.9c0-0.6,0.5-1.1,1.1-1.1H42c0.6,0,1.1,0.5,1.1,1.1v33.7
				C43.1,40.3,42.6,40.8,42,40.8z M9.1,38.6h31.9V7H9.1V38.6z"/>
		</g>
		<g>
			<polygon class="st0" points="1.9,19.4 1.9,48.9 48.1,48.9 			"/>
			<path class="st1" d="M48.1,50H1.9c-0.6,0-1.1-0.5-1.1-1.1V19.4c0-0.4,0.2-0.8,0.6-1c0.3-0.2,0.8-0.2,1.1,0L48.7,48
				c0.4,0.3,0.6,0.8,0.5,1.2C49,49.7,48.6,50,48.1,50z M3,47.8h41.4L3,21.4V47.8z"/>
		</g>
		<g>
			<polygon class="st0" points="48.1,19.4 48.1,48.9 1.9,48.9 			"/>
			<path class="st1" d="M48.1,50H1.9c-0.5,0-0.9-0.3-1-0.8c-0.1-0.5,0.1-1,0.5-1.2l46.2-29.5c0.3-0.2,0.8-0.2,1.1,0
				c0.3,0.2,0.6,0.6,0.6,1v29.5C49.2,49.5,48.7,50,48.1,50z M5.6,47.8H47V21.4L5.6,47.8z"/>
		</g>
		<g>
			<polygon class="st0" points="25,30.6 1.9,48.9 48.1,48.9 			"/>
			<path class="st1" d="M48.1,50H1.9c-0.5,0-0.9-0.3-1-0.7c-0.2-0.4,0-0.9,0.3-1.2l23.1-18.4c0.4-0.3,1-0.3,1.3,0l23.1,18.4
				c0.4,0.3,0.5,0.8,0.3,1.2C49,49.7,48.6,50,48.1,50z M5,47.8h40L25,31.9L5,47.8z"/>
		</g>
	</g>
	<path class="st3" d="M34.8,18.8c0-5.4-4.4-9.8-9.8-9.8c-5.4,0-9.8,4.4-9.8,9.8s4.4,9.8,9.8,9.8C30.4,28.6,34.8,24.2,34.8,18.8z"/>
	<path class="st1" d="M22.4,24.3c-0.3,0-0.6-0.1-0.8-0.3l-3.3-3.3c-0.4-0.4-0.4-1.1,0-1.5c0.4-0.4,1.1-0.4,1.5,0l2.5,2.5l6.8-6.8
		c0.4-0.4,1.1-0.4,1.5,0c0.4,0.4,0.4,1.1,0,1.5L23.2,24C23,24.2,22.7,24.3,22.4,24.3z"/>
</g>
</svg>
