<?xml version="1.0" encoding="utf-8"?>
<!-- Generator: Adobe Illustrator 24.3.0, SVG Export Plug-In . SVG Version: 6.00 Build 0)  -->
<svg version="1.1" id="Layer_1" xmlns="http://www.w3.org/2000/svg" xmlns:xlink="http://www.w3.org/1999/xlink" x="0px" y="0px"
	 viewBox="0 0 40 60" style="enable-background:new 0 0 40 60;" xml:space="preserve">
<style>
	.f1 {fill: #ffffff;}
</style>
<g>
	<path class="f1" d="M19.4,42.3c-2.9,0-5.1-2.7-4.5-5.5c0.2-1.1,0.5-2.1,0.9-3c0.9-2.1,2.6-4.5,5.3-7c2.6-2.5,4.3-4.4,5-5.4
		c1.1-1.6,1.6-3.4,1.6-5.3c0-2.5-0.6-4.4-1.9-5.8s-3.1-2-5.5-2c-2.3,0-4.2,0.6-5.6,1.9c-0.7,0.7-1.2,1.4-1.6,2.3
		c-0.7,1.8-2.3,3-4.2,3H8.2c-3.3,0-5.6-3.3-4.3-6.3c0.8-1.9,2-3.6,3.6-5C10.7,1.4,14.9,0,20.2,0c5.4,0,9.6,1.4,12.6,4.1
		c3,2.7,4.5,6.6,4.5,11.5c0,4.4-2,8.7-6.1,13l-5,4.9c-1.2,1.3-1.9,3-2.4,5.1C23.4,40.7,21.6,42.3,19.4,42.3L19.4,42.3z M13.7,54.8
		c0-1.6,0.5-2.9,1.5-3.8c1-1,2.3-1.5,4-1.5c1.7,0,3.1,0.5,4.1,1.5c1,1,1.5,2.3,1.5,3.8c0,1.5-0.5,2.7-1.5,3.7c-1,1-2.3,1.5-4.1,1.5
		s-3.1-0.5-4.1-1.5S13.7,56.3,13.7,54.8z"/>
</g>
</svg>
